<svg xmlns="http://www.w3.org/2000/svg">
  <defs>
    <symbol viewBox="0 0 48 48" id="icon-css3">
      <path fill="#0277BD" d="M41 5H7l3 34 14 4 14-4 3-34z"/>
      <path fill="#039BE5" d="M24 8v31.9l11.2-3.2L37.7 8z"/>
      <path fill="#FFF" d="M33.1 13H24v4h4.9l-.3 4H24v4h4.4l-.3 4.5-4.1 1.4v4.2l7.9-2.6.7-11.5z"/>
      <path fill="#EEE" d="M24 13v4h-8.9l-.3-4H24zm-4.6 8l.2 4H24v-4h-4.6zm.4 6h-4l.3 5.5 7.9 2.6v-4.2l-4.1-1.4-.1-2.5z"/>
    </symbol>
    <symbol viewBox="0 0 48 48" id="icon-html-5">
      <path fill="#E65100" d="M41 5H7l3 34 14 4 14-4 3-34z"/>
      <path fill="#FF6D00" d="M24 8v31.9l11.2-3.2L37.7 8z"/>
      <path fill="#FFF" d="M24 25v-4h8.6l-.7 11.5-7.9 2.6v-4.2l4.1-1.4.3-4.5H24zm8.9-8l.3-4H24v4h8.9z"/>
      <path fill="#EEE" d="M24 30.9v4.2l-7.9-2.6-.4-5.5h4l.2 2.5 4.1 1.4zM19.1 17H24v-4h-9.1l.7 12H24v-4h-4.6l-.3-4z"/>
    </symbol>

     <symbol xmlns="http://www.w3.org/2000/svg" viewBox="0 0 26 26" id="icon-wordpress">
    <path fill="#fff" d="M13.031 0C5.883 0 .062 5.82.062 12.969c0 7.148 5.82 12.969 12.97 12.969 7.148 0 12.968-5.82 12.968-12.97C26 5.82 20.18 0 13.031 0zm0 .594c6.82 0 12.375 5.554 12.375 12.375 0 6.82-5.554 12.375-12.375 12.375-6.82 0-12.375-5.555-12.375-12.375S6.211.594 13.031.594zm0 1.25c-3.886 0-7.293 1.98-9.281 5 .262.008.508.031.719.031 1.164 0 2.968-.156 2.968-.156.598-.035.66.867.063.937 0 0-.613.059-1.281.094l4.062 12.031L12.72 12.5l-1.75-4.75c-.598-.035-1.156-.094-1.156-.094-.602-.035-.536-.972.062-.937 0 0 1.844.156 2.938.156 1.164 0 2.968-.156 2.968-.156.602-.035.66.867.063.937 0 0-.614.059-1.281.094l4.03 11.938L19.689 16c.562-1.445.843-2.64.843-3.594 0-1.375-.48-2.324-.906-3.062-.563-.918-1.094-1.707-1.094-2.625 0-1.02.782-1.969 1.875-1.969.051 0 .106-.004.157 0a11.129 11.129 0 00-7.532-2.906zm9.75 5.781c.051.355.094.746.094 1.156 0 1.13-.21 2.383-.844 3.969l-3.406 9.813c3.305-1.93 5.531-5.493 5.531-9.594 0-1.934-.508-3.762-1.375-5.344zm-19.906.813a11.101 11.101 0 00-.969 4.53c0 4.403 2.57 8.196 6.282 10zm10.344 5.5l-3.313 9.687c.996.293 2.031.469 3.125.469 1.293 0 2.531-.25 3.688-.657a.932.932 0 01-.063-.125z"></path>
  </symbol>
  <symbol xmlns="http://www.w3.org/2000/svg" viewBox="0 0 48 48" id="icon-postgresql">
    <path fill="#fff" d="M44.083 29.79c-.183-.829-.935-1.796-2.452-1.796-.31 0-.649.039-1.035.119-.708.146-1.311.217-1.842.241 4.133-7.04 6.816-16.819 4.159-20.214-3.501-4.473-8.214-5.141-10.711-5.141L31.967 3c-.929.015-1.893.129-2.863.339l-3.583.774A14.004 14.004 0 0024.018 4h-.046l-.152-.001c-1.593 0-3.046.338-4.341.973l-1.251-.493c-1.72-.678-4.308-1.485-6.868-1.485-.144 0-.287.003-.431.008-2.522.091-4.688 1.048-6.265 2.767C2.696 7.915 1.8 11.054 2.003 15.1c.01.209 2.458 20.9 9.397 20.9h.025l.064-.001c.901-.022 1.76-.384 2.563-1.077.613.46 1.406.732 2.145.84.488.115 1.366.278 2.418.278 1.284 0 2.442-.263 3.44-.738-.001.88-.006 1.994-.016 3.418l-.001.075.005.075c.097 1.419.342 2.698.711 3.701 1.051 2.859 2.866 4.434 5.111 4.434.093 0 .188-.003.284-.009 1.846-.114 3.717-1.151 5.004-2.772 1.393-1.755 1.715-3.607 1.839-5.026l.008-.087v-4.167l.103.01.436.038.042.004.042.002c.124.006.252.008.381.008 1.507 0 3.362-.391 4.616-.974 1.199-.556 3.939-2.084 3.463-4.242z"></path>
    <path fill="#0277bd" d="M33 34c0-.205.012-.376.018-.565L33 33l.032-.022c.149-2.673.886-3.703 1.675-4.29-.11-.153-.237-.318-.356-.475-.333-.437-.748-.979-1.192-1.674l-.082-.158c-.067-.164-.229-.447-.435-.819-1.183-2.14-3.645-6.592-1.96-9.404.738-1.232 2.122-1.942 4.121-2.117-.817-2.323-3.878-7.926-10.818-8.041h-.006c-6.041-.098-8.026 5.392-8.672 8.672.89-.377 1.906-.606 2.836-.606h.043c2.29.017 3.865 1.239 4.323 3.354.335 1.552.496 2.91.492 4.153-.01 2.719-.558 4.149-1.042 5.411l-.154.408c-.124.334-.255.645-.379.937a12.31 12.31 0 00-.318.802c.484.11.864.265 1.125.38l.151.066c.047.02.094.043.137.069.848.516 1.376 1.309 1.489 2.233.061.498.051 3.893.03 6.855.087 1.285.305 2.364.593 3.146.409 1.114 1.431 3.241 3.394 3.119 1.37-.085 2.687-.919 3.561-2.019.938-1.181 1.284-2.487 1.414-3.958V34z"></path>
    <path fill="#0277bd" d="M15.114 28.917c-1.613-1.683-2.399-3.947-2.104-6.056.285-2.035.124-4.027.037-5.098a11.082 11.082 0 01-.047-.77c0-.008.002-.015.003-.023l-.002-.011c.121-3.021 1.286-7.787 4.493-10.62C15.932 5.724 13.388 4.913 11 5c-3.742.136-7.364 2.724-7 10 .137 2.73 3.222 19.103 7.44 19 .603-.015 1.229-.402 1.872-1.176a93.536 93.536 0 012.708-3.104 7.618 7.618 0 01-.906-.803zm21.909-14.186c.015.154.002.286-.022.408.031.92-.068 1.813-.169 2.677-.074.636-.15 1.293-.171 1.952-.021.645.07 1.282.166 1.956.225 1.578.459 3.359-.765 5.437.225.296.423.571.581.837 4.61-7.475 6.468-16.361 4.695-18.626-2.683-3.428-6.397-4.42-9.339-4.372-.921.015-1.758.139-2.473.294 5.076 2.46 7.337 7.732 7.497 9.437zM41 30.071c-2.665.55-3.947.257-4.569-.126-.1.072-.2.133-.293.19-.372.225-.961.583-1.105 2.782.083.016.156.025.246.044l.435.039c1.32.06 3.049-.31 4.063-.781 2.185-1.014 3.376-2.592 1.223-2.148zm-18.977 2.048c-.037-.298-.198-.539-.492-.732l-.108-.047c-.361-.159-.77-.34-1.423-.34h-.004c-.127.01-.253.019-.38.019-.052 0-.103-.007-.155-.009-.474.365-1.148.647-2.816.99-2.98.759-1.221 1.655-.078 1.794 1.106.277 3.735.614 5.481-.809a13.664 13.664 0 00-.025-.866z"></path>
    <path fill="#0277bd" d="M20.681 18.501c-.292.302-.753.566-1.262.484-.828-.134-1.463-1.133-1.417-1.508.044-.374.751-.569 1.578-.435.287.047.548.128.768.228-.32-.688-.899-1.085-1.782-1.182-1.565-.174-3.226.644-3.56 1.097.007.11.02.251.033.417.093 1.147.265 3.284-.05 5.537-.208 1.485.393 3.169 1.567 4.395.757.79 1.641 1.29 2.513 1.438.111-.478.309-.944.513-1.425.113-.265.233-.547.346-.852l.162-.427c.443-1.155.9-2.35.909-4.703.004-.905-.107-1.938-.318-3.064zm14.166 3.506c-.104-.729-.211-1.484-.185-2.303.023-.742.105-1.442.184-2.119.062-.533.11-1.045.138-1.55-1.289.107-2.145.479-2.551 1.108.168-.057.358-.102.568-.129.892-.116 1.543.141 1.618.637.055.363-.253.705-.388.836a1.75 1.75 0 01-.981.488 1.559 1.559 0 01-.192.012c-.353 0-.69-.121-.949-.3.112 1.973 1.567 4.612 2.283 5.907.153.277.271.498.369.688.393-1.119.248-2.139.086-3.275z"></path>
  </symbol>
  <symbol xmlns="http://www.w3.org/2000/svg" viewBox="0 0 48 48" id="icon-firebase">
    <path fill="#ff8f00" d="M8 37L23.234 8.436a.84.84 0 011.494.02L30 19 8 37z"></path>
    <path fill="#ffa000" d="M8 36.992l5.546-34.199c.145-.895 1.347-1.089 1.767-.285L26 22.992l-18 14z"></path>
    <path fill="#ff6f00" d="M8.008 36.986l.2-.157 17.529-14.341-4.944-9.476z"></path>
    <path fill="#ffc400" d="M8 37l26.666-25.713a.954.954 0 011.606.547L40 37l-15 8.743a2.002 2.002 0 01-1.961 0L8 37z"></path>
  </symbol>
  <symbol xmlns="http://www.w3.org/2000/svg" viewBox="0 0 48 48" id="icon-bootstrap">
    <path fill="#673ab7" d="M42 37a5 5 0 01-5 5H11a5 5 0 01-5-5V11a5 5 0 015-5h26a5 5 0 015 5v26z"></path>
    <path fill="#fff" d="M33.03 25.6c-.65-.9-1.59-1.52-2.8-1.85 0 0 1.02-.37 1.94-1.75.55-.88.83-1.94.83-3.18 0-2.15-.78-3.8-2.34-4.93C29.1 12.76 27.34 12 24.35 12H15v24h10.43c2.83-.02 4.96-.63 6.41-1.8 1.44-1.19 2.16-2.95 2.16-5.3 0-1.3-.32-2.4-.97-3.3zM21 16h4.25c1.52 0 2.75 1.23 2.75 2.75s-1.23 2.75-2.75 2.75H21V16zm5 16h-5v-6h5c1.66 0 3 1.34 3 3s-1.34 3-3 3z"></path>
  </symbol>

   <symbol xmlns="http://www.w3.org/2000/svg" viewBox="0 0 998 257" id="icon-chakra">
    <path  d="M388.5 115.302c17.612 0 25.466 11.424 28.084 21.658l24.752-9.044c-4.76-18.564-21.896-38.08-53.074-38.08-33.32 0-59.262 25.704-59.262 61.404 0 35.224 25.942 61.642 59.976 61.642 30.464 0 47.838-19.754 53.312-37.842l-24.276-8.806c-2.618 8.806-10.948 21.42-29.036 21.42-17.374 0-32.368-13.09-32.368-36.414s14.994-35.938 31.892-35.938zm96.394 25.942c.476-14.756 8.806-26.18 24.038-26.18 17.374 0 23.8 11.424 23.8 25.704v68.544h27.608v-73.304c0-25.466-13.804-45.934-42.364-45.934-12.138 0-25.228 4.284-33.082 14.518V37h-27.608v172.312h27.608v-68.068zm92.396 36.652c0 18.326 14.994 34.986 39.27 34.986 18.802 0 30.226-9.52 35.7-18.326 0 9.282.952 14.042 1.19 14.756h25.704c-.238-1.19-1.428-8.092-1.428-18.564v-57.596c0-23.086-13.566-43.316-49.266-43.316-28.56 0-46.648 17.85-48.79 37.842l25.228 5.712c1.19-11.662 9.282-20.944 23.8-20.944 15.232 0 21.896 7.854 21.896 17.612 0 4.046-1.904 7.378-8.568 8.33l-29.75 4.522c-19.754 2.856-34.986 14.28-34.986 34.986zm44.506 13.328c-10.948 0-16.898-7.14-16.898-14.994 0-9.52 6.902-14.28 15.47-15.708L650.594 156v5.236c0 22.61-13.328 29.988-28.798 29.988zm188.312-97.818h-36.652l-44.506 46.886V37h-27.37v172.312h27.37v-32.368l14.28-14.994 34.034 47.362h33.796l-48.552-66.878 47.6-49.028zm79.241-.714a39.532 39.532 0 00-7.378-.714c-15.232 0-28.084 7.378-33.558 19.992V93.406h-26.894v115.906h27.608v-55.216c0-21.658 9.758-34.034 31.178-34.034 2.856 0 5.95.238 9.044.714V92.692zm6.619 85.204c0 18.326 14.994 34.986 39.27 34.986 18.802 0 30.226-9.52 35.7-18.326 0 9.282.952 14.042 1.19 14.756h25.704c-.238-1.19-1.428-8.092-1.428-18.564v-57.596c0-23.086-13.566-43.316-49.266-43.316-28.56 0-46.648 17.85-48.79 37.842l25.228 5.712c1.19-11.662 9.282-20.944 23.8-20.944 15.232 0 21.896 7.854 21.896 17.612 0 4.046-1.904 7.378-8.568 8.33l-29.75 4.522c-19.754 2.856-34.986 14.28-34.986 34.986zm44.506 13.328c-10.948 0-16.898-7.14-16.898-14.994 0-9.52 6.902-14.28 15.47-15.708L969.272 156v5.236c0 22.61-13.328 29.988-28.798 29.988z" fill="#fff"></path>
    <rect width="257" height="257" rx="128.5" fill="url(#logo)"></rect>
    <path d="M69.558 133.985l87.592-86.99c1.636-1.624 4.27.353 3.165 2.378l-32.601 59.752c-.728 1.332.237 2.958 1.755 2.958h56.34c1.815 0 2.691 2.223 1.364 3.462l-98.728 92.142c-1.77 1.652-4.405-.676-2.984-2.636l46.736-64.473c.958-1.322.014-3.174-1.619-3.174h-59.61c-1.786 0-2.677-2.161-1.41-3.419z" fill="#fff"></path>
    <defs>
      <linearGradient id="logo" x1="128.5" x2="128.5" y2="257" gradientUnits="userSpaceOnUse">
        <stop stop-color="#7BCBD4"></stop>
        <stop offset="1" stop-color="#29C6B7"></stop>
      </linearGradient>
    </defs>
  </symbol>

   
    <symbol viewBox="0 0 48 48" id="icon-javascript">
      <path fill="#ffd600" d="M6 42V6h36v36H6z"/>
      <path fill="#000001" d="M29.538 32.947c.692 1.124 1.444 2.201 3.037 2.201 1.338 0 2.04-.665 2.04-1.585 0-1.101-.726-1.492-2.198-2.133l-.807-.344c-2.329-.988-3.878-2.226-3.878-4.841 0-2.41 1.845-4.244 4.728-4.244 2.053 0 3.528.711 4.592 2.573l-2.514 1.607c-.553-.988-1.151-1.377-2.078-1.377-.946 0-1.545.597-1.545 1.377 0 .964.6 1.354 1.985 1.951l.807.344C36.452 29.645 38 30.839 38 33.523 38 36.415 35.716 38 32.65 38c-2.999 0-4.702-1.505-5.65-3.368l2.538-1.685zm-11.586.082c.506.906 1.275 1.603 2.381 1.603 1.058 0 1.667-.418 1.667-2.043V22h3.333v11.101c0 3.367-1.953 4.899-4.805 4.899-2.577 0-4.437-1.746-5.195-3.368l2.619-1.603z"/>
    </symbol>
    <symbol viewBox="0 0 48 48" id="icon-material-ui">
      <path fill="#29b6f6" d="M1 5l6 4v20l-6-4z"/>
      <path fill="#0288d1" d="M47 20l-6 4v13l6-4zM47 6l-6 4v7l6-4zM35 5l-6 4v20l6-4z"/>
      <path fill="#29b6f6" d="M1 12l17 11v-7L1 5z"/>
      <path fill="#0288d1" d="M35 12L18 23v-7L35 5zM35 26L18 37v-7l17-11zM47 34L30 45v-7l17-11z"/>
      <path fill="#29b6f6" d="M30 37.765L18 30v7l12 7.765z"/>
    </symbol>
    <symbol viewBox="0 0 48 48" id="icon-mongodb">
      <path fill="#5d4037" d="M42 17.3C42 37.8 24 44 24 44S6 37.8 6 17.3c0-2.5.2-4.6.4-6.3.3-2.5 2-4.5 4.4-5.1C13.9 5 18.8 4 24 4s10.1 1 13.3 1.9c2.4.6 4.1 2.7 4.4 5.1.1 1.7.3 3.9.3 6.3z"/>
      <path fill="#4caf50" d="M24 7c4.9 0 9.5 1 12.5 1.8 1.2.3 2 1.3 2.2 2.6.2 1.9.3 3.9.3 5.9 0 15.6-11.5 21.9-15 23.4-3.5-1.6-15-7.9-15-23.4 0-2 .1-4 .3-5.9.1-1.3 1-2.3 2.2-2.6C14.5 8 19.1 7 24 7m0-3c-5.2 0-10.1 1-13.3 1.9-2.3.6-4.1 2.7-4.3 5.1-.2 1.7-.4 3.9-.4 6.3C6 37.8 24 44 24 44s18-6.2 18-26.7c0-2.5-.2-4.6-.4-6.3-.3-2.5-2-4.5-4.4-5.1C34.1 5 29.2 4 24 4z"/>
      <path fill="#dcedc8" d="M23 28h2v8h-2z"/>
      <path fill="#4caf50" d="M24 10s-6 5-6 13c0 5.2 3.3 8.5 5 10l1-3 1 3c1.7-1.5 5-4.8 5-10 0-8-6-13-6-13z"/>
      <path fill="#81c784" d="M24 10s-6 5-6 13c0 5.2 3.3 8.5 5 10l1-3V10z"/>
    </symbol>
    <symbol viewBox="0 0 48 48" id="icon-nodejs">
      <path fill="#388e3c" d="M17.204 19.122l-4.907 2.715a.563.563 0 0 0-.297.492v5.433c0 .203.113.39.297.492l4.908 2.717c.183.101.41.101.593 0l4.907-2.717a.566.566 0 0 0 .295-.492v-5.433a.564.564 0 0 0-.297-.492l-4.906-2.715a.613.613 0 0 0-.594 0m25.248 4.891l-.818.452a.093.093 0 0 0-.049.082v.906c0 .034.019.065.049.082l.818.453a.102.102 0 0 0 .099 0l.818-.453a.095.095 0 0 0 .049-.082v-.906a.094.094 0 0 0-.05-.082l-.818-.452c-.015-.009-.032-.013-.049-.013s-.034.004-.049.013"/>
      <path fill="#fff" d="M35.751 13.364l-2.389-1.333a.243.243 0 0 0-.361.212L33 20.295l-2.203-1.219a.613.613 0 0 0-.594 0h.001l-4.907 2.715a.563.563 0 0 0-.297.491v5.433c0 .203.113.39.297.492l4.908 2.717c.183.101.41.101.593 0l4.907-2.717a.565.565 0 0 0 .295-.492V13.788a.487.487 0 0 0-.249-.424zm-2.885 13.094l-2.23 1.235a.28.28 0 0 1-.269 0l-2.231-1.235a.255.255 0 0 1-.136-.224v-2.47c0-.092.051-.177.135-.224l2.231-1.234h-.001a.29.29 0 0 1 .27 0l2.23 1.234a.259.259 0 0 1 .135.225v2.47a.257.257 0 0 1-.134.223z"/>
      <path fill="#2e7d32" d="M17.204 19.122L12 27.762c0 .203.113.39.297.492l4.908 2.717c.183.101.41.101.593 0L23 22.329a.564.564 0 0 0-.297-.492l-4.906-2.715a.613.613 0 0 0-.594 0"/>
      <path fill="#4caf50" d="M17.204 19.122l-4.907 2.715a.563.563 0 0 0-.297.492l5.204 8.642c.183.101.41.101.593 0l4.907-2.717a.565.565 0 0 0 .296-.492l-5.203-8.64a.613.613 0 0 0-.594 0"/>
      <path fill="#fff" d="M47.703 21.791l-4.906-2.715a.613.613 0 0 0-.594 0h.001l-4.907 2.715a.574.574 0 0 0-.297.503v5.411c0 .209.114.402.297.503l4.908 2.717a.613.613 0 0 0 .593 0l2.263-1.253a.3.3 0 0 0-.002-.526l-4.924-2.687a.263.263 0 0 1-.135-.228v-2.466c0-.092.05-.177.13-.221l2.235-1.236h-.001a.29.29 0 0 1 .27 0l2.235 1.237c.08.044.13.129.13.221v2.012a.241.241 0 0 0 .363.208l2.398-1.393a.483.483 0 0 0 .24-.417v-1.88a.576.576 0 0 0-.297-.505zm-37 0l-4.906-2.715a.613.613 0 0 0-.594 0h.001L.297 21.791a.574.574 0 0 0-.297.503v7.465a.241.241 0 0 0 .363.208l2.398-1.393A.482.482 0 0 0 3 28.157v-4.393c0-.092.05-.177.13-.221l2.235-1.236a.29.29 0 0 1 .27 0l2.235 1.237c.08.044.13.129.13.221v4.393a.48.48 0 0 0 .24.417l2.398 1.393a.246.246 0 0 0 .242.001.245.245 0 0 0 .12-.21v-7.464a.576.576 0 0 0-.297-.504z"/>
    </symbol>
    <symbol viewBox="0 0 48 48" id="icon-react-native">
      <path fill="#80deea" d="M24 34C11.1 34 1 29.6 1 24s10.1-10 23-10 23 4.4 23 10-10.1 10-23 10zm0-18c-12.6 0-21 4.1-21 8 0 3.9 8.4 8 21 8s21-4.1 21-8c0-3.9-8.4-8-21-8z"/>
      <path fill="#80deea" d="M15.1 44.6c-1 0-1.8-.2-2.6-.7-4.9-2.8-3.6-13.7 2.8-24.9 3-5.2 6.7-9.6 10.3-12.4 3.9-3 7.4-3.9 9.8-2.5 2.5 1.4 3.4 4.9 2.8 9.8-.6 4.6-2.6 10-5.6 15.2-3 5.2-6.7 9.6-10.3 12.4-2.6 2-5.1 3.1-7.2 3.1zM32.9 5.4c-1.6 0-3.7.9-6 2.7C23.5 10.8 20 15 17.1 20c-6.3 10.9-6.9 20.3-3.6 22.2 1.7 1 4.5.1 7.6-2.3C24.5 37.2 28 33 30.9 28c2.9-5 4.8-10.1 5.4-14.4.5-4-.1-6.8-1.8-7.8-.5-.2-1-.4-1.6-.4z"/>
      <path fill="#80deea" d="M33 44.6c-5 0-12.2-6.1-17.6-15.6C8.9 17.8 7.6 6.9 12.5 4.1 17.4 1.3 26.2 7.8 32.7 19c3 5.2 5 10.6 5.6 15.2.7 4.9-.3 8.3-2.8 9.8-.8.4-1.6.6-2.5.6zM13.5 5.8c-3.3 1.9-2.7 11.3 3.6 22.2 6.3 10.9 14.1 16.1 17.4 14.2 1.7-1 2.3-3.8 1.8-7.8-.6-4.3-2.5-9.4-5.4-14.4C24.6 9.1 16.8 3.9 13.5 5.8z"/>
      <circle cx="24" cy="24" r="4" fill="#80deea"/>
    </symbol>
    <symbol viewBox="0 0 48 48" id="icon-sass">
      <path fill="#f06292" d="M39.867 25.956a9.032 9.032 0 0 0-3.986.928c-.408-.815-.822-1.532-.891-2.065-.081-.622-.175-.994-.077-1.735.098-.741.527-1.791.521-1.87-.006-.079-.096-.456-.983-.463-.887-.006-1.646.171-1.735.405-.089.234-.26.761-.366 1.311-.155.804-1.771 3.673-2.688 5.173-.3-.586-.555-1.102-.608-1.51-.081-.622-.175-.994-.077-1.735.098-.741.527-1.791.521-1.87-.006-.079-.096-.456-.983-.463-.887-.006-1.646.171-1.735.405-.089.234-.185.781-.366 1.311-.182.529-2.329 5.314-2.892 6.555-.287.632-.536 1.14-.712 1.486l-.001-.002-.029.062c-.151.295-.24.458-.24.458l.003.006c-.12.217-.248.418-.311.418-.044 0-.133-.577.019-1.369.32-1.66 1.087-4.248 1.08-4.338-.004-.046.143-.497-.501-.733-.626-.229-.849.153-.906.154-.055.001-.096.135-.096.135s.697-2.911-1.33-2.911c-1.268 0-3.024 1.387-3.889 2.644-.546.298-1.715.936-2.954 1.617l-1.423.783-.095-.104c-2.459-2.623-7.003-4.478-6.811-8.005.07-1.282.516-4.658 8.733-8.752 6.731-3.354 12.12-2.431 13.051-.386 1.33 2.923-2.88 8.354-9.87 9.138-2.663.299-4.066-.734-4.415-1.118-.367-.405-.422-.423-.559-.347-.223.124-.082.481 0 .694.209.543 1.065 1.506 2.525 1.986 1.285.422 4.412.653 8.193-.81 4.236-1.638 7.543-6.196 6.571-10.005-.988-3.874-7.412-5.148-13.492-2.988-3.623 1.286-7.54 3.304-10.357 5.938-3.349 3.132-3.883 5.859-3.663 6.998.782 4.048 6.361 6.684 8.595 8.637l-.308.17c-1.12.554-5.373 2.78-6.437 5.131-1.207 2.667.192 4.581 1.118 4.839 2.869.798 5.813-.638 7.396-2.998 1.582-2.359 1.389-5.432.663-6.834l-.028-.052.876-.517c.57-.335 1.13-.647 1.615-.911-.272.744-.471 1.637-.574 2.926-.122 1.514.499 3.471 1.311 4.241.358.339.788.347 1.06.347.945 0 1.376-.786 1.851-1.716.582-1.14 1.099-2.468 1.099-2.468s-.648 3.586 1.118 3.586c.644 0 1.291-.835 1.58-1.26l.001.007.05-.083c.067-.102.105-.167.105-.167l.003-.019a70.91 70.91 0 0 0 1.693-3.162c1.112-2.182 2.178-4.916 2.178-4.916s.099.668.424 1.774c.191.65.597 1.369.918 2.059-.258.358-.416.563-.416.563l.004.011c-.206.274-.437.569-.679.857-.878 1.045-1.923 2.239-2.063 2.583-.165.406-.126.704.193.945.233.175.647.203 1.08.174a4.92 4.92 0 0 0 1.617-.368 5.426 5.426 0 0 0 1.39-.731c.861-.633 1.38-1.538 1.33-2.738-.028-.661-.238-1.316-.505-1.934l.235-.34c1.357-1.984 2.41-4.164 2.41-4.164s.099.668.424 1.774c.164.559.489 1.17.781 1.768-1.276 1.037-2.067 2.242-2.342 3.032-.508 1.462-.11 2.124.636 2.275.338.068.816-.087 1.175-.239a5.438 5.438 0 0 0 1.486-.764c.861-.633 1.689-1.519 1.639-2.718-.023-.546-.171-1.088-.372-1.608 1.082-.451 2.482-.701 4.266-.493 3.827.447 4.577 2.836 4.434 3.836-.144 1-.946 1.55-1.215 1.716-.268.166-.35.224-.328.347.033.179.157.173.386.134.315-.053 2.009-.813 2.082-2.659.091-2.346-2.154-4.92-6.131-4.899zM10.37 35.9c-1.268 1.383-3.038 1.905-3.798 1.465-.82-.475-.495-2.511 1.06-3.979.948-.894 2.172-1.718 2.984-2.225l.786-.472.086-.048-.001-.002.196-.118c.567 2.089.018 3.928-1.313 5.379zm9.235-6.277c-.441 1.076-1.365 3.83-1.928 3.682-.483-.127-.777-2.22-.096-4.28.342-1.037 1.074-2.276 1.504-2.757.692-.774 1.454-1.027 1.639-.713.235.4-.842 3.393-1.119 4.068zm7.629 3.64c-.187.098-.359.159-.438.112-.059-.035.077-.164.077-.164s.954-1.027 1.33-1.494c.219-.272.472-.595.748-.955l.003.107c-.002 1.23-1.19 2.06-1.72 2.394zm5.877-1.34c-.14-.099-.116-.42.343-1.421.18-.393.592-1.054 1.306-1.686.083.26.133.509.132.741-.009 1.548-1.113 2.126-1.781 2.366z"/>
    </symbol>
  </defs>
</svg>