<?xml version="1.0" standalone="no"?>
<!DOCTYPE svg PUBLIC "-//W3C//DTD SVG 20010904//EN"
 "http://www.w3.org/TR/2001/REC-SVG-20010904/DTD/svg10.dtd">
<svg version="1.0" xmlns="http://www.w3.org/2000/svg"
 width="500.000000pt" height="500.000000pt" viewBox="0 0 500.000000 500.000000"
 preserveAspectRatio="xMidYMid meet">
<metadata>
Created by potrace 1.11, written by Peter Selinger 2001-2013
</metadata>
<g transform="translate(0.000000,500.000000) scale(0.100000,-0.100000)"
fill="#000000" stroke="none">
<path d="M1260 4348 c0 -2 139 -334 309 -738 l308 -735 139 -2 139 -3 305 729
c167 402 306 735 308 740 3 8 -58 11 -190 11 l-193 0 -184 -480 c-101 -264
-185 -479 -186 -478 -1 2 -84 218 -185 481 l-183 477 -194 0 c-106 0 -193 -1
-193 -2z"/>
<path d="M2179 2823 c-731 -730 -1329 -1332 -1329 -1338 0 -6 52 -62 115 -125
l115 -115 1337 1338 1338 1337 -115 115 c-63 63 -119 115 -124 115 -5 0 -607
-597 -1337 -1327z"/>
<path d="M2617 2382 l-1337 -1337 118 -118 117 -117 1338 1338 1337 1337 -118
118 -117 117 -1338 -1338z"/>
<path d="M3241 2374 c-131 -35 -256 -136 -314 -253 -30 -62 -32 -72 -32 -176
0 -106 1 -112 34 -173 58 -106 135 -167 335 -266 202 -99 236 -128 236 -202 0
-39 -5 -51 -33 -79 -72 -72 -202 -73 -349 -4 -51 24 -112 59 -135 77 -24 17
-47 32 -51 32 -4 0 -45 -64 -92 -141 l-84 -142 29 -24 c17 -13 80 -49 140 -79
231 -115 497 -126 707 -28 168 80 259 239 245 432 -8 102 -42 166 -134 252
-73 69 -89 77 -354 203 -128 61 -159 91 -159 152 0 38 5 52 28 75 38 37 121
55 194 41 62 -11 179 -53 211 -76 12 -8 25 -15 28 -15 9 0 139 245 139 262 0
33 -171 107 -308 134 -93 18 -211 17 -281 -2z"/>
</g>
</svg>
